<svg width="30" height="24" viewBox="0 0 30 24" fill="none" xmlns="http://www.w3.org/2000/svg">
<path d="M28.8125 4.5625V19.4375C28.8125 20.2829 28.4767 21.0936 27.8789 21.6914C27.2811 22.2892 26.4704 22.625 25.625 22.625H4.375C3.52962 22.625 2.71887 22.2892 2.1211 21.6914C1.52332 21.0936 1.1875 20.2829 1.1875 19.4375V4.5625M28.8125 4.5625C28.8125 3.71712 28.4767 2.90637 27.8789 2.3086C27.2811 1.71083 26.4704 1.375 25.625 1.375H4.375C3.52962 1.375 2.71887 1.71083 2.1211 2.3086C1.52332 2.90637 1.1875 3.71712 1.1875 4.5625M28.8125 4.5625V4.90675C28.8126 5.45096 28.6733 5.98612 28.4079 6.46125C28.1426 6.93639 27.76 7.33568 27.2967 7.62108L16.6717 14.159C16.169 14.4686 15.5903 14.6325 15 14.6325C14.4097 14.6325 13.831 14.4686 13.3283 14.159L2.70333 7.6225C2.23997 7.33709 1.8574 6.93781 1.59206 6.46267C1.32671 5.98753 1.18744 5.45237 1.1875 4.90817V4.5625" stroke="#C1C1C1" stroke-width="1.5" stroke-linecap="round" stroke-linejoin="round"/>
</svg>
