<svg width="29" height="29" viewBox="0 0 29 29" fill="none" xmlns="http://www.w3.org/2000/svg">
<path d="M14.5 5.75V23.25M10.125 19.1404L11.4069 20.1015C13.1146 21.3833 15.884 21.3833 17.5931 20.1015C19.3023 18.8196 19.3023 16.7429 17.5931 15.461C16.74 14.8194 15.62 14.5 14.5 14.5C13.4427 14.5 12.3854 14.1792 11.579 13.539C9.96604 12.2571 9.96604 10.1804 11.579 8.89854C13.1919 7.61667 15.8081 7.61667 17.421 8.89854L18.0263 9.37979M27.625 14.5C27.625 16.2236 27.2855 17.9303 26.6259 19.5227C25.9663 21.1151 24.9995 22.562 23.7808 23.7808C22.562 24.9995 21.1151 25.9663 19.5227 26.6259C17.9303 27.2855 16.2236 27.625 14.5 27.625C12.7764 27.625 11.0697 27.2855 9.47728 26.6259C7.88488 25.9663 6.43799 24.9995 5.21922 23.7808C4.00045 22.562 3.03367 21.1151 2.37408 19.5227C1.71449 17.9303 1.375 16.2236 1.375 14.5C1.375 11.019 2.75781 7.68064 5.21922 5.21922C7.68064 2.75781 11.019 1.375 14.5 1.375C17.981 1.375 21.3194 2.75781 23.7808 5.21922C26.2422 7.68064 27.625 11.019 27.625 14.5Z" stroke="#E72A2A" stroke-width="1.5" stroke-linecap="round" stroke-linejoin="round"/>
</svg>
