<svg width="27" height="29" viewBox="0 0 27 29" fill="none" xmlns="http://www.w3.org/2000/svg">
<path fill-rule="evenodd" clip-rule="evenodd" d="M3.46255 10.6334C3.46255 8.06192 4.48408 5.59572 6.30242 3.77738C8.12077 1.95903 10.587 0.9375 13.1585 0.9375C15.73 0.9375 18.1962 1.95903 20.0146 3.77738C21.8329 5.59572 22.8544 8.06192 22.8544 10.6334V11.7108C22.8544 14.7603 24.0036 17.5384 25.8968 19.6399C26.0147 19.7706 26.0989 19.9282 26.1418 20.0989C26.1847 20.2697 26.1851 20.4483 26.143 20.6192C26.101 20.7902 26.0176 20.9482 25.9003 21.0795C25.783 21.2107 25.6353 21.3113 25.4702 21.3722C23.2523 22.191 20.9311 22.7943 18.5308 23.1577C18.5848 23.8963 18.486 24.638 18.2405 25.3366C17.995 26.0353 17.6081 26.6758 17.104 27.2182C16.5998 27.7606 15.9893 28.1932 15.3104 28.489C14.6316 28.7848 13.899 28.9375 13.1585 28.9375C12.418 28.9375 11.6854 28.7848 11.0066 28.489C10.3277 28.1932 9.71717 27.7606 9.21302 27.2182C8.70887 26.6758 8.32197 26.0353 8.07648 25.3366C7.83099 24.638 7.73218 23.8963 7.78622 23.1577C5.41847 22.7989 3.09336 22.2002 0.846794 21.3708C0.681796 21.3099 0.534221 21.2095 0.416957 21.0784C0.299694 20.9473 0.216309 20.7895 0.174084 20.6188C0.13186 20.4481 0.13208 20.2696 0.174727 20.0989C0.217374 19.9283 0.301149 19.7707 0.418736 19.6399C2.38207 17.4661 3.46697 14.6399 3.46255 11.7108V10.6334ZM9.92938 23.4177C9.91101 23.8532 9.98092 24.288 10.1349 24.6958C10.2889 25.1036 10.5238 25.476 10.8255 25.7906C11.1271 26.1053 11.4893 26.3557 11.8903 26.5267C12.2912 26.6978 12.7226 26.786 13.1585 26.786C13.5944 26.786 14.0258 26.6978 14.4267 26.5267C14.8277 26.3557 15.1899 26.1053 15.4915 25.7906C15.7932 25.476 16.0281 25.1036 16.1821 24.6958C16.3361 24.288 16.406 23.8532 16.3876 23.4177C14.2392 23.6113 12.0778 23.6113 9.92938 23.4177Z" fill="#343434" fill-opacity="0.3"/>
</svg>
